<svg xmlns="http://www.w3.org/2000/svg" width="265.34" height="53.23" viewBox="0 0 265.34 53.23"><g transform="translate(0 151.265)"><path d="M201.505-125.983h12.562v3.413h-8.729v3.858h7.567v3.042h-7.567v4.451h9.075v3.413H201.505Z" transform="translate(-130.596 -16.385)" fill="#2b2b2b"/><path d="M259.754-116.882a6.434,6.434,0,0,0-.371-2.226,5.023,5.023,0,0,0-1.076-1.756,4.931,4.931,0,0,0-1.731-1.162,6.055,6.055,0,0,0-2.312-.421h-2.547v11.1h2.547a6.262,6.262,0,0,0,2.349-.408,4.812,4.812,0,0,0,1.718-1.15,4.873,4.873,0,0,0,1.063-1.756,6.634,6.634,0,0,0,.359-2.225m-11.87-9.1h6.38a10.606,10.606,0,0,1,3.981.7,8.777,8.777,0,0,1,2.98,1.929,8.245,8.245,0,0,1,1.867,2.881,9.826,9.826,0,0,1,.643,3.585,9.824,9.824,0,0,1-.643,3.585,8.242,8.242,0,0,1-1.867,2.881,8.626,8.626,0,0,1-2.98,1.916,10.779,10.779,0,0,1-3.981.693h-6.38Z" transform="translate(-160.654 -16.386)" fill="#2b2b2b"/><path d="M302.2-107.807h3.833v-18.176H302.2Z" transform="translate(-195.859 -16.386)" fill="#2b2b2b" fill-rule="evenodd"/><path d="M340.554-107.807h-3.313l-8.507-11.5v11.5H324.9v-18.176h3.289l8.507,11.524v-11.524h3.857Z" transform="translate(-210.569 -16.385)" fill="#2b2b2b"/><path d="M387.31-118.69h8.63v7.27a9.48,9.48,0,0,1-3.314,2.46,10.536,10.536,0,0,1-4.426.9,9.807,9.807,0,0,1-3.821-.729,8.992,8.992,0,0,1-2.992-2,9.253,9.253,0,0,1-1.953-2.98,9.486,9.486,0,0,1-.7-3.66,9.734,9.734,0,0,1,.692-3.672,9.057,9.057,0,0,1,1.941-2.992,9.1,9.1,0,0,1,2.955-2,9.4,9.4,0,0,1,3.734-.73,9.259,9.259,0,0,1,4.154.928,9,9,0,0,1,3.165,2.584l-3.116,2a5.584,5.584,0,0,0-1.867-1.372,5.637,5.637,0,0,0-2.386-.507,5.123,5.123,0,0,0-2.176.457,5.4,5.4,0,0,0-1.719,1.249,5.808,5.808,0,0,0-1.138,1.83,6.04,6.04,0,0,0-.408,2.226,6.133,6.133,0,0,0,.408,2.238,5.652,5.652,0,0,0,1.15,1.843,5.346,5.346,0,0,0,1.793,1.249,5.791,5.791,0,0,0,2.337.457,7.365,7.365,0,0,0,2.213-.321,4.853,4.853,0,0,0,1.744-.94v-2.6h-4.9Z" transform="translate(-245.455 -15.839)" fill="#2b2b2b"/><path d="M436.709-123.547h2.647l.408-4.335,1.571.029v4.305h4.451v1.745h-4.451v7.71a3.18,3.18,0,0,0,.64,2.138,2.183,2.183,0,0,0,1.745.742h2.066l.058,1.717a7.822,7.822,0,0,1-1.018.116q-.553.029-1.105.029a4.968,4.968,0,0,1-1.978-.364,3.868,3.868,0,0,1-1.4-.989,3.931,3.931,0,0,1-.815-1.5,6.551,6.551,0,0,1-.261-1.891v-7.71h-2.56Z" transform="translate(-283.032 -15.155)" fill="#2b2b2b"/><path d="M478.051-114.557a4.718,4.718,0,0,0-1.847.349,4.46,4.46,0,0,0-1.44.96,4.5,4.5,0,0,0-.96,1.426,5.762,5.762,0,0,0-.436,1.745h9.193v-.116a4.592,4.592,0,0,0-.378-1.7,4.227,4.227,0,0,0-.96-1.382,4.827,4.827,0,0,0-1.411-.931,4.353,4.353,0,0,0-1.76-.349m.349,10.968a5.82,5.82,0,0,0,2.371-.48,4.824,4.824,0,0,0,1.906-1.556l1.716.9a6.7,6.7,0,0,1-2.545,2.211,7.669,7.669,0,0,1-3.448.756,7.706,7.706,0,0,1-2.967-.553,6.591,6.591,0,0,1-2.284-1.542,6.878,6.878,0,0,1-1.455-2.313,8.007,8.007,0,0,1-.509-2.895,8.61,8.61,0,0,1,.465-2.851A6.769,6.769,0,0,1,473-114.237a6.5,6.5,0,0,1,2.153-1.571,6.859,6.859,0,0,1,2.895-.582,6.522,6.522,0,0,1,2.749.567,6.4,6.4,0,0,1,2.095,1.513,6.723,6.723,0,0,1,1.323,2.2,7.455,7.455,0,0,1,.466,2.618,6.747,6.747,0,0,1-.059,1.105H473.308a5.566,5.566,0,0,0,.436,1.92,4.711,4.711,0,0,0,1.033,1.513,4.687,4.687,0,0,0,1.571,1,5.509,5.509,0,0,0,2.051.364" transform="translate(-305.376 -22.603)" fill="#2b2b2b"/><path d="M522.935-116.086H525v-21.965h-2.066Z" transform="translate(-338.915 -8.564)" fill="#2b2b2b" fill-rule="evenodd"/><path d="M548.237-114.557a4.718,4.718,0,0,0-1.847.349,4.465,4.465,0,0,0-1.44.96,4.511,4.511,0,0,0-.96,1.426,5.783,5.783,0,0,0-.436,1.745h9.193v-.116a4.6,4.6,0,0,0-.378-1.7,4.214,4.214,0,0,0-.96-1.382,4.837,4.837,0,0,0-1.411-.931,4.359,4.359,0,0,0-1.761-.349m.349,10.968a5.818,5.818,0,0,0,2.371-.48,4.826,4.826,0,0,0,1.906-1.556l1.716.9a6.7,6.7,0,0,1-2.545,2.211,7.666,7.666,0,0,1-3.447.756,7.709,7.709,0,0,1-2.968-.553,6.586,6.586,0,0,1-2.284-1.542,6.868,6.868,0,0,1-1.454-2.313,7.994,7.994,0,0,1-.509-2.895,8.608,8.608,0,0,1,.466-2.851,6.763,6.763,0,0,1,1.353-2.327,6.512,6.512,0,0,1,2.153-1.571,6.856,6.856,0,0,1,2.894-.582,6.52,6.52,0,0,1,2.749.567,6.392,6.392,0,0,1,2.094,1.513,6.716,6.716,0,0,1,1.324,2.2,7.463,7.463,0,0,1,.466,2.618,6.777,6.777,0,0,1-.058,1.105H543.5a5.558,5.558,0,0,0,.437,1.92,4.7,4.7,0,0,0,1.032,1.513,4.694,4.694,0,0,0,1.571,1,5.51,5.51,0,0,0,2.051.364" transform="translate(-350.865 -22.603)" fill="#2b2b2b"/><path d="M590.644-109.059a8.145,8.145,0,0,1,.495-2.851,6.909,6.909,0,0,1,1.411-2.327,6.758,6.758,0,0,1,2.211-1.571,6.987,6.987,0,0,1,2.9-.582,7.045,7.045,0,0,1,3.273.756,7.288,7.288,0,0,1,2.487,2.094l-1.6,1.193a5.923,5.923,0,0,0-1.818-1.5,4.9,4.9,0,0,0-2.342-.567,4.85,4.85,0,0,0-2.051.422,4.462,4.462,0,0,0-1.542,1.149,5.345,5.345,0,0,0-.974,1.7,6.119,6.119,0,0,0-.349,2.08,5.9,5.9,0,0,0,.364,2.08,5.265,5.265,0,0,0,1.018,1.7,4.682,4.682,0,0,0,1.6,1.149,5.042,5.042,0,0,0,2.08.422,5.551,5.551,0,0,0,2.284-.436,6.361,6.361,0,0,0,1.818-1.251l1.367,1.367a7.677,7.677,0,0,1-2.371,1.644,7.437,7.437,0,0,1-3.1.625,7.114,7.114,0,0,1-2.894-.582,6.972,6.972,0,0,1-2.269-1.571,7.069,7.069,0,0,1-1.469-2.313,7.647,7.647,0,0,1-.524-2.837" transform="translate(-382.798 -22.603)" fill="#2b2b2b"/><path d="M638.456-109.059a5.993,5.993,0,0,0,.349,2.066,5.1,5.1,0,0,0,1,1.687,4.8,4.8,0,0,0,1.556,1.149,4.748,4.748,0,0,0,2.037.422,4.747,4.747,0,0,0,2.036-.422,4.817,4.817,0,0,0,1.556-1.149,5.09,5.09,0,0,0,1-1.687,5.993,5.993,0,0,0,.349-2.066,6.12,6.12,0,0,0-.349-2.08,5.062,5.062,0,0,0-1-1.7,4.824,4.824,0,0,0-1.556-1.149,4.752,4.752,0,0,0-2.036-.422,4.848,4.848,0,0,0-2.051.422,4.608,4.608,0,0,0-1.557,1.149,5.2,5.2,0,0,0-.989,1.7,6.12,6.12,0,0,0-.349,2.08m-2.095,0a8.155,8.155,0,0,1,.495-2.851,6.914,6.914,0,0,1,1.41-2.327,6.721,6.721,0,0,1,2.226-1.571,7.087,7.087,0,0,1,2.909-.582,6.911,6.911,0,0,1,2.865.582,6.924,6.924,0,0,1,2.226,1.571,6.982,6.982,0,0,1,1.44,2.327,7.956,7.956,0,0,1,.51,2.851,7.837,7.837,0,0,1-.51,2.837,7,7,0,0,1-1.44,2.313,6.908,6.908,0,0,1-2.226,1.571,6.911,6.911,0,0,1-2.865.582,6.913,6.913,0,0,1-2.866-.582,6.894,6.894,0,0,1-2.225-1.571,6.99,6.99,0,0,1-1.44-2.313,7.823,7.823,0,0,1-.51-2.837" transform="translate(-412.427 -22.603)" fill="#2b2b2b"/><path d="M701.1-102.048h-2.066v-8.233a4.427,4.427,0,0,0-1-3,3.617,3.617,0,0,0-2.9-1.164,3.972,3.972,0,0,0-1.411.247,4.746,4.746,0,0,0-1.192.655,4.226,4.226,0,0,0-.931.975,4.507,4.507,0,0,0-.6,1.207v9.31H688.94v-14.2h.96l.815,2.444a5.886,5.886,0,0,1,1.876-1.847,4.89,4.89,0,0,1,2.662-.742,5.677,5.677,0,0,1,2.953.785,5.524,5.524,0,0,1,2.051,2.094,6.132,6.132,0,0,1,2.138-2.123,5.518,5.518,0,0,1,2.836-.757,6.1,6.1,0,0,1,2.3.422,5.287,5.287,0,0,1,1.818,1.207,5.606,5.606,0,0,1,1.208,1.891,6.772,6.772,0,0,1,.436,2.5v8.321h-2.066v-8.146a5.93,5.93,0,0,0-.232-1.688,3.692,3.692,0,0,0-.713-1.353,3.316,3.316,0,0,0-1.193-.887,4.05,4.05,0,0,0-1.673-.32,3.853,3.853,0,0,0-1.4.247,4.342,4.342,0,0,0-1.163.669,4.375,4.375,0,0,0-.9.989,4.188,4.188,0,0,0-.553,1.178Z" transform="translate(-446.504 -22.602)" fill="#2b2b2b"/><path d="M111.928-74.583l7.678-.09L109.082-94.5l-29.018-.139,9.945,20.166a.855.855,0,0,0,.072.137h.867l.041,0,6.619-.077L90.872-87.443h3.351l6.814,12.988,7.722-.09-6.587-12.9h3.173Z" transform="translate(-51.889 -36.701)" fill="#f5821f" fill-rule="evenodd"/><path d="M31.939-37.631l7.678-.09L29.093-57.546,0-57.685l10.229,20.3,7.39-.077L10.875-50.528h3.34L21.048-37.5l7.722-.09L22.162-50.528l3.179.007Z" transform="translate(0 -60.649)" fill="#f5821f"/><path d="M59.572-151.175,53.33-138.318H50.215L56.4-151.138l-7.722.09-6.3,12.73h-3.3l6.178-12.69-7.487.088-6.486,13.142h0l-5.941,12.262-.122.234-3.154,0c.052-.1.093-.178.14-.277l6.1-12.57-7.722.09-6.319,12.761H12l-1.034-.021L17.152-138l-7.487.088L0-118.334l29.093.139L35.663-131.3l21.53.1L67.25-151.265Z" transform="translate(0)" fill="#2b2b2b" fill-rule="evenodd"/><path d="M437.91-58.528h1.07l2.069,5.293,2.013-5.053h.746l2.055,5.053,2.041-5.293h1.056l-2.745,6.8h-.732l-2.069-4.983-2,4.983h-.732Z" transform="translate(-283.811 -60.103)" fill="#484848"/><path d="M473.162-55.382a2.794,2.794,0,0,0,.183,1.021,2.555,2.555,0,0,0,.5.816,2.351,2.351,0,0,0,.76.549,2.277,2.277,0,0,0,.964.2,2.356,2.356,0,0,0,.985-.2,2.244,2.244,0,0,0,.767-.563,2.635,2.635,0,0,0,.493-.83,2.9,2.9,0,0,0,.176-1.02v-.141a2.352,2.352,0,0,0-.19-.936,2.509,2.509,0,0,0-.514-.774,2.494,2.494,0,0,0-.76-.528,2.3,2.3,0,0,0-.957-.2,2.282,2.282,0,0,0-.964.2,2.313,2.313,0,0,0-.76.556,2.648,2.648,0,0,0-.5.823,2.8,2.8,0,0,0-.183,1.021m-1.013,0a3.7,3.7,0,0,1,.26-1.394,3.507,3.507,0,0,1,.718-1.126,3.336,3.336,0,0,1,1.084-.753,3.347,3.347,0,0,1,1.358-.274,3.041,3.041,0,0,1,1.464.38,3.051,3.051,0,0,1,1.126,1.028l.366-1.295h.465v6.827h-.873l-.042-1.323a2.9,2.9,0,0,1-.45.577,2.956,2.956,0,0,1-.605.465,3.2,3.2,0,0,1-.725.31,2.789,2.789,0,0,1-.781.113,3.228,3.228,0,0,1-1.323-.274,3.271,3.271,0,0,1-1.07-.753A3.58,3.58,0,0,1,472.409-54a3.64,3.64,0,0,1-.26-1.386" transform="translate(-306.001 -59.843)" fill="#484848"/><path d="M499.683-49.872a2.741,2.741,0,0,1-.9,1.225,2.415,2.415,0,0,1-1.464.422q-.183,0-.359-.014a1.846,1.846,0,0,1-.289-.042l.07-.816h.563a1.536,1.536,0,0,0,.887-.232,1.548,1.548,0,0,0,.535-.711l.69-1.7-2.787-6.785h1.056l2.252,5.574,2.2-5.574h1.07Z" transform="translate(-321.866 -60.102)" fill="#484848"/><path d="M522.476-57.521a2.577,2.577,0,0,0-.683-.38,2.467,2.467,0,0,0-.894-.155,1.352,1.352,0,0,0-.915.282.924.924,0,0,0-.324.732.826.826,0,0,0,.253.605,1.531,1.531,0,0,0,.774.366l.8.183a2.788,2.788,0,0,1,1.492.732,1.767,1.767,0,0,1,.464,1.239,1.921,1.921,0,0,1-.176.816,1.858,1.858,0,0,1-.507.655,2.553,2.553,0,0,1-.788.436,3,3,0,0,1-1.006.162,3.234,3.234,0,0,1-1.372-.3,3.1,3.1,0,0,1-1.049-.76l.591-.633a2.254,2.254,0,0,0,.8.591,2.441,2.441,0,0,0,1.028.225,1.512,1.512,0,0,0,1.112-.366,1.16,1.16,0,0,0,.366-.845q0-.858-1.154-1.112l-.859-.2a3.743,3.743,0,0,1-.683-.225,2.158,2.158,0,0,1-.563-.359,1.567,1.567,0,0,1-.387-.521,1.668,1.668,0,0,1-.141-.711,1.739,1.739,0,0,1,.148-.7,1.78,1.78,0,0,1,.429-.6,2.076,2.076,0,0,1,.7-.415,2.769,2.769,0,0,1,.957-.155,3.34,3.34,0,0,1,1.2.2,3.542,3.542,0,0,1,.943.528Z" transform="translate(-336.073 -59.843)" fill="#484848"/><path d="M548.628-62.391h1.281l.2-2.1.76.014v2.083h2.154v.845h-2.154v3.73a1.539,1.539,0,0,0,.31,1.035,1.057,1.057,0,0,0,.845.359h1l.028.83a3.771,3.771,0,0,1-.493.056q-.268.014-.535.014a2.406,2.406,0,0,1-.957-.176,1.873,1.873,0,0,1-.676-.479,1.9,1.9,0,0,1-.394-.725,3.171,3.171,0,0,1-.127-.915v-3.73h-1.239Z" transform="translate(-355.567 -56.24)" fill="#484848"/><path d="M566.322-55.382a2.9,2.9,0,0,0,.169,1,2.465,2.465,0,0,0,.486.816,2.323,2.323,0,0,0,.753.556,2.3,2.3,0,0,0,.985.2,2.3,2.3,0,0,0,.985-.2,2.326,2.326,0,0,0,.753-.556,2.463,2.463,0,0,0,.486-.816,2.9,2.9,0,0,0,.169-1,2.964,2.964,0,0,0-.169-1.006,2.453,2.453,0,0,0-.486-.823,2.337,2.337,0,0,0-.753-.556,2.3,2.3,0,0,0-.985-.2,2.35,2.35,0,0,0-.992.2,2.237,2.237,0,0,0-.753.556,2.518,2.518,0,0,0-.479.823,2.965,2.965,0,0,0-.169,1.006m-1.014,0a3.944,3.944,0,0,1,.239-1.379,3.342,3.342,0,0,1,.683-1.126,3.25,3.25,0,0,1,1.077-.76,3.43,3.43,0,0,1,1.408-.282,3.346,3.346,0,0,1,1.386.282,3.354,3.354,0,0,1,1.077.76,3.382,3.382,0,0,1,.7,1.126,3.847,3.847,0,0,1,.246,1.379,3.788,3.788,0,0,1-.246,1.372,3.39,3.39,0,0,1-.7,1.119,3.344,3.344,0,0,1-1.077.76,3.346,3.346,0,0,1-1.386.282,3.345,3.345,0,0,1-1.387-.282,3.338,3.338,0,0,1-1.077-.76,3.381,3.381,0,0,1-.7-1.119,3.794,3.794,0,0,1-.246-1.372" transform="translate(-366.377 -59.843)" fill="#484848"/><path d="M601.827-55.382a3.943,3.943,0,0,1,.239-1.379,3.346,3.346,0,0,1,.683-1.126,3.271,3.271,0,0,1,1.07-.76,3.38,3.38,0,0,1,1.4-.282,3.41,3.41,0,0,1,1.584.366,3.531,3.531,0,0,1,1.2,1.013l-.774.577a2.863,2.863,0,0,0-.88-.725,2.37,2.37,0,0,0-1.133-.274,2.348,2.348,0,0,0-.992.2,2.165,2.165,0,0,0-.746.556,2.571,2.571,0,0,0-.471.823,2.956,2.956,0,0,0-.169,1.006,2.855,2.855,0,0,0,.176,1.006,2.541,2.541,0,0,0,.493.823,2.264,2.264,0,0,0,.775.556,2.437,2.437,0,0,0,1.006.2A2.687,2.687,0,0,0,606.4-53a3.078,3.078,0,0,0,.88-.605l.662.662a3.723,3.723,0,0,1-1.147.8,3.6,3.6,0,0,1-1.5.3,3.441,3.441,0,0,1-1.4-.282,3.371,3.371,0,0,1-1.1-.76,3.421,3.421,0,0,1-.711-1.119,3.689,3.689,0,0,1-.254-1.372" transform="translate(-390.046 -59.843)" fill="#484848"/><path d="M624.961-55.382a2.9,2.9,0,0,0,.169,1,2.465,2.465,0,0,0,.486.816,2.324,2.324,0,0,0,.753.556,2.3,2.3,0,0,0,.985.2,2.3,2.3,0,0,0,.985-.2,2.327,2.327,0,0,0,.753-.556,2.465,2.465,0,0,0,.486-.816,2.9,2.9,0,0,0,.169-1,2.965,2.965,0,0,0-.169-1.006,2.455,2.455,0,0,0-.486-.823,2.337,2.337,0,0,0-.753-.556,2.3,2.3,0,0,0-.985-.2,2.349,2.349,0,0,0-.992.2,2.236,2.236,0,0,0-.753.556,2.517,2.517,0,0,0-.479.823,2.964,2.964,0,0,0-.169,1.006m-1.014,0a3.943,3.943,0,0,1,.239-1.379,3.342,3.342,0,0,1,.683-1.126,3.249,3.249,0,0,1,1.077-.76,3.43,3.43,0,0,1,1.408-.282,3.346,3.346,0,0,1,1.386.282,3.353,3.353,0,0,1,1.077.76,3.379,3.379,0,0,1,.7,1.126,3.846,3.846,0,0,1,.246,1.379,3.787,3.787,0,0,1-.246,1.372,3.387,3.387,0,0,1-.7,1.119,3.343,3.343,0,0,1-1.077.76,3.346,3.346,0,0,1-1.386.282,3.345,3.345,0,0,1-1.386-.282,3.337,3.337,0,0,1-1.077-.76,3.382,3.382,0,0,1-.7-1.119,3.8,3.8,0,0,1-.246-1.372" transform="translate(-404.382 -59.843)" fill="#484848"/><path d="M650.385-51.989h-1v-6.869h.464l.394,1.182a2.86,2.86,0,0,1,.964-.894,2.636,2.636,0,0,1,1.358-.359,3.178,3.178,0,0,1,1.14.2,2.556,2.556,0,0,1,.922.6,2.888,2.888,0,0,1,.612.95,3.376,3.376,0,0,1,.225,1.274v3.913h-1v-3.829a2.369,2.369,0,0,0-.5-1.569,1.791,1.791,0,0,0-1.457-.6,2.1,2.1,0,0,0-1.295.422,2.572,2.572,0,0,0-.831,1.028Z" transform="translate(-420.869 -59.843)" fill="#484848"/><path d="M674.545-51.989h-1v-6.869h.465l.394,1.182a2.86,2.86,0,0,1,.964-.894,2.636,2.636,0,0,1,1.358-.359,3.178,3.178,0,0,1,1.14.2,2.556,2.556,0,0,1,.922.6,2.889,2.889,0,0,1,.612.95,3.377,3.377,0,0,1,.225,1.274v3.913h-1v-3.829a2.369,2.369,0,0,0-.5-1.569,1.791,1.791,0,0,0-1.457-.6,2.1,2.1,0,0,0-1.3.422,2.572,2.572,0,0,0-.83,1.028Z" transform="translate(-436.527 -59.843)" fill="#484848"/><path d="M699.828-58.042a2.282,2.282,0,0,0-.894.169,2.159,2.159,0,0,0-.7.464,2.182,2.182,0,0,0-.465.69,2.791,2.791,0,0,0-.211.845h4.448v-.056a2.221,2.221,0,0,0-.183-.823,2.04,2.04,0,0,0-.464-.669,2.339,2.339,0,0,0-.683-.45,2.105,2.105,0,0,0-.852-.169M700-52.736a2.817,2.817,0,0,0,1.147-.232,2.336,2.336,0,0,0,.922-.753l.831.436a3.245,3.245,0,0,1-1.232,1.07,3.71,3.71,0,0,1-1.668.366,3.722,3.722,0,0,1-1.436-.267,3.184,3.184,0,0,1-1.1-.746,3.327,3.327,0,0,1-.7-1.119,3.868,3.868,0,0,1-.246-1.4,4.168,4.168,0,0,1,.225-1.379,3.28,3.28,0,0,1,.655-1.126,3.15,3.15,0,0,1,1.042-.76,3.319,3.319,0,0,1,1.4-.282,3.154,3.154,0,0,1,1.33.274,3.1,3.1,0,0,1,1.013.732,3.259,3.259,0,0,1,.641,1.063,3.609,3.609,0,0,1,.225,1.267,3.286,3.286,0,0,1-.028.535h-5.476a2.688,2.688,0,0,0,.211.929,2.275,2.275,0,0,0,.5.732,2.268,2.268,0,0,0,.76.486,2.665,2.665,0,0,0,.992.176" transform="translate(-451.407 -59.843)" fill="#484848"/><path d="M720.345-55.382a3.944,3.944,0,0,1,.239-1.379,3.342,3.342,0,0,1,.683-1.126,3.269,3.269,0,0,1,1.07-.76,3.38,3.38,0,0,1,1.4-.282,3.41,3.41,0,0,1,1.584.366,3.532,3.532,0,0,1,1.2,1.013l-.774.577a2.858,2.858,0,0,0-.88-.725,2.367,2.367,0,0,0-1.133-.274,2.349,2.349,0,0,0-.992.2,2.165,2.165,0,0,0-.746.556,2.582,2.582,0,0,0-.471.823,2.964,2.964,0,0,0-.169,1.006,2.848,2.848,0,0,0,.176,1.006,2.541,2.541,0,0,0,.493.823A2.266,2.266,0,0,0,722.8-53a2.439,2.439,0,0,0,1.006.2,2.685,2.685,0,0,0,1.1-.211,3.076,3.076,0,0,0,.88-.605l.662.662a3.716,3.716,0,0,1-1.147.8,3.6,3.6,0,0,1-1.5.3,3.443,3.443,0,0,1-1.4-.282,3.374,3.374,0,0,1-1.1-.76,3.415,3.415,0,0,1-.711-1.119,3.7,3.7,0,0,1-.253-1.372" transform="translate(-466.857 -59.843)" fill="#484848"/><path d="M741.465-62.391h1.281l.2-2.1.76.014v2.083h2.154v.845H743.7v3.73a1.539,1.539,0,0,0,.31,1.035,1.057,1.057,0,0,0,.845.359h1l.028.83a3.768,3.768,0,0,1-.493.056q-.268.014-.535.014a2.4,2.4,0,0,1-.957-.176,1.874,1.874,0,0,1-.676-.479,1.9,1.9,0,0,1-.394-.725,3.169,3.169,0,0,1-.127-.915v-3.73h-1.239Z" transform="translate(-480.545 -56.24)" fill="#484848"/></g></svg>